<svg width="1428" height="769" xmlns="http://www.w3.org/2000/svg"><path fill="none" d="M-1-1h1430v771H-1z"/><g><path stroke="null" fill="#f2f2f2" d="M292.929 346.543a7.89 7.89 0 001.891 6.459l.164.24a71.244 71.244 0 019.18 19.024l.11.356a10.321 10.321 0 002.405 4.744c.315.388.63.775.916 1.183a11.238 11.238 0 01.193 12.372l-.117.176a2.672 2.672 0 00-.468.907c-.094.562.348 1.056 1.078 1.816a7.253 7.253 0 011.316 1.673c.972 1.903.032 4.159-1.4 5.403a10.024 10.024 0 01-3.79 1.882c.97 2.36.014 5.128-.842 7.607-.333.964-.647 1.874-.855 2.742a30.8 30.8 0 00-.615 4.417c-.09 1-.185 2.033-.342 3.052-.504 3.265-1.67 5.695-3.465 7.224a2.786 2.786 0 01-1.252.672c-1.065.21-2.032-.41-2.724-1.715l-.078.187c-1.562 3.71-3.32 7.397-5.02 10.963l-4.71 9.874c-2.096 4.395-4.466 9.363-8.297 13.143a188.285 188.285 0 003.817 27.098c2.53 11.294 5.315 24.647 6.781 38.051a92.465 92.465 0 01.058 14.443 104.965 104.965 0 00-.116 12.131c4.573-7.565 8.695-15.185 8.94-23.882 8.413 16.793 9.514 34.87 10.324 53.635.59 13.688 1.373 27.431 4.178 40.841 3.05 14.58 8.502 29.381 5.475 43.965a56.038 56.038 0 01-2.749 8.89c-4.646 11.957 6.518 24.224 18.825 20.607l.253-.075c4.53-1.39 8.392-4.169 12.127-7.199a47.662 47.662 0 006.79 13.369 18.75 18.75 0 005.504 5.498 10.319 10.319 0 002.073.924l5.355-.013c.028-.01.057-.016.085-.028 3.738-1.507 5.34-5.967 5.601-9.989.481-7.439-2.143-14.555-5.377-21.12a17.884 17.884 0 01-.268-.579c4.924-.942 10.264-1.075 12.849-6.389a11.05 11.05 0 001.052-4.405c.2-5.111-2.125-9.581-3.778-14.22-3.606-10.12-4.016-21.057-4.355-31.795q-.507-16.002-.915-32.007c-.178-6.975-.346-13.993-1.708-20.836-.596-2.996-1.42-5.951-1.813-8.98-1.47-11.318 3.143-22.543 3.429-33.952.322-12.833-.525-25.735-1.632-38.524-1.07-12.358-.507-24.77.53-37.148 3.608-3.005 6.298-7.054 8.889-11.016l5.979-9.145q1.054-1.613 2.102-3.23a12.533 12.533 0 005.517-2.332l.019-.018c.239.974.457 1.954.672 2.93.234 1.065.791 2.39 1.88 2.325a1.995 1.995 0 00.935-.369c2.132-1.37 3.338-3.807 4.056-6.238s1.053-4.975 1.968-7.338c1.307-3.378 4.36-7.178 2.7-10.397a11.2 11.2 0 004.687-1.38c1.373-.903 2.332-2.66 1.786-4.209-.537-1.528-2.396-2.748-1.915-4.295a3.836 3.836 0 01.889-1.29 10.447 10.447 0 001.353-11.369c-.525-1.011-1.218-1.933-1.676-2.975a16.507 16.507 0 01-.966-3.952 70.607 70.607 0 00-6.479-19.85 12.55 12.55 0 01-1.49-3.94 15.605 15.605 0 01.43-4.385c.92-5.726-.473-11.632-2.913-16.894-.177-.38-.37-.751-.556-1.126a14.512 14.512 0 00.05-3.063 44.744 44.744 0 00-1.994-10.831 16.674 16.674 0 00-6.467-8.695c-3.012-1.896-6.658-2.424-10.184-2.91l-11.39-1.568a4.266 4.266 0 001.176-2.807c.608-12.456 8.807-32.362 1.608-49.374-7.483-17.68-26.551-21.03-26.551-21.03s-18.36-4.908-33.707 18.414c-14.305 21.737-32.748 42.1-9.377 50.792l6.182-12.964.732 14.924a95.171 95.171 0 0010.29 1.567q.93.095 1.857.194a24.923 24.923 0 01-3.053 1.477c-1.654.553-3.449.648-5.046 1.348-1.91.837-3.352 2.452-4.729 4.02l-7.428 8.457a29.064 29.064 0 00-4.412 5.985c-1.344 2.688-1.819 5.713-2.31 8.677-.121.732-.256 1.46-.381 2.191a27.626 27.626 0 012.69 12.05c-.009.308-.022.617-.036.927zm89.274 21.761c.02-.13.05-.257.073-.386a25.891 25.891 0 012.581 4.521 35.87 35.87 0 012.342 22.002c-1.605-5.194-3.14-10.405-4.265-15.721-.724-3.425-1.276-6.958-.73-10.416zM67.936 720.31a71.88 71.88 0 0121.022-2.358 72.273 72.273 0 00-.055-26.75 72.39 72.39 0 00-19.3 11.828 69.236 69.236 0 01-1.667 17.28zM97.512 719.447l-.078.242c-.072.223-7.408 22.452-25.892 33.572a54.464 54.464 0 01-18.054 6.64c6.154.685 24.002 1.674 38.99-7.344 18.435-11.09 25.535-33.12 25.535-33.12a72.08 72.08 0 00-20.5.01z"/><path stroke="null" fill="#3f3d56" d="M39.955 761.132a70.189 70.189 0 01-9.157-.566l-.824.313-.102-.449-.12-.02-.93-.164.292-.9s.115-.355.346-.983c-.977-5.69-3.228-24.341 5.477-40.486 10.24-18.988 32.097-27.362 32.317-27.445l.881-.33.209.918a73.454 73.454 0 01-.408 29.29 73.588 73.588 0 0128.86-1.681l.927.163-.289.897c-.072.223-7.408 22.452-25.892 33.572-10.824 6.512-23.17 7.871-31.587 7.871zM31 758.935c4.23.572 23.706 2.537 39.693-7.082 15.844-9.532 23.27-27.494 24.85-31.749-3.479-.46-15.828-1.676-28.509 2.178l-1.403.426.37-1.419c3.381-12.982 1.558-25.462.926-28.948-4.177 1.781-21.777 10.056-30.544 26.316-8.57 15.892-6.198 34.36-5.267 39.64l.04.221-.08.21-.076.207zM172.697 759.706a25.135 25.135 0 01-10.14-1.837 9.42 9.42 0 01-4.034-2.978c-1.6-2.214-1.814-5.363-.64-9.36 1.656-5.63 6.033-12.48 11.104-17.48a39.52 39.52 0 01-10.069-3.203c-5.251-2.717-9.64-7.536-13.415-14.733-13.212-25.198-8.517-56.418-4.744-81.505 4.979-33.101 9.64-66.818 14.147-99.425l.023-.167c1.555-11.252 3.163-22.887 3.237-34.413a56.82 56.82 0 00-.896-8.877c-.73-4.744-1.486-9.65-.226-14.422a53.786 53.786 0 001.314-10.775 77.878 77.878 0 01.7-7.91 39.27 39.27 0 016.929-16.778 5.635 5.635 0 01-2.643-4.294 13.64 13.64 0 011.033-5.738l11.547-34.229c1.024-3.035 2.083-6.173 2.818-9.336a89.002 89.002 0 001.714-11.834c.78-8.269 1.303-16.67 1.554-24.971l.008-.255c.089-2.957.18-6.014 1.166-8.894a29.688 29.688 0 013.665-6.71l6.232-9.375c1.142-1.716 2.435-3.662 4.407-4.862a15.017 15.017 0 012.88-1.252 18.296 18.296 0 002.004-.794 6.07 6.07 0 00.422-.23 94.29 94.29 0 01-9.568-.207l-.629-.05-2.242-12.108-3.627 11.287-.733-.165c-6.396-1.444-10.422-4.096-12.31-8.106-3.99-8.48 2.668-21.62 9.717-35.53 1.508-2.975 3.067-6.05 4.538-9.112 12.21-25.404 31.593-23.237 31.788-23.211.126.002 19.835.975 29.726 17.688 6.78 11.456 5.975 25.543 5.328 36.862a95.663 95.663 0 00-.21 12.632 5.22 5.22 0 01-.263 2.192l10.154.028c3.45.01 7.363.021 10.819 1.596 4.086 1.863 6.584 5.447 7.961 8.125a45.198 45.198 0 013.493 10.657 15.09 15.09 0 01.376 2.966l.06.089c.175.256.35.512.517.773 3.586 5.614 5.41 11.429 5.275 16.816-.008.308-.021.617-.035.927a7.89 7.89 0 001.891 6.459l.164.24a71.244 71.244 0 019.18 19.024l.11.356a10.321 10.321 0 002.405 4.744c.315.388.63.775.916 1.183a11.238 11.238 0 01.193 12.372l-.117.176a2.672 2.672 0 00-.468.907c-.094.562.348 1.056 1.078 1.816a7.253 7.253 0 011.316 1.673c.972 1.903.032 4.159-1.4 5.403a10.024 10.024 0 01-3.79 1.882c.97 2.36.014 5.128-.842 7.607-.333.964-.647 1.874-.855 2.742a30.8 30.8 0 00-.615 4.417c-.09 1-.185 2.033-.342 3.052-.504 3.265-1.67 5.695-3.465 7.224a2.786 2.786 0 01-1.252.672c-1.065.21-2.032-.41-2.724-1.715l-.078.187c-1.562 3.71-3.32 7.397-5.02 10.963l-4.71 9.874c-2.096 4.395-4.466 9.363-8.297 13.142a188.285 188.285 0 003.817 27.099c2.53 11.294 5.315 24.647 6.781 38.051a92.465 92.465 0 01.058 14.443c-.314 6.508-.64 13.238 1.058 19.539.51 1.89 1.212 3.777 1.892 5.6.371.999.743 1.997 1.089 3.004 2.267 6.605 3.393 13.601 4.481 20.367l.03.19a5213.876 5213.876 0 005.184 31.592c1.652 9.877 3.523 21.07 8.485 30.686.471.913.97 1.814 1.47 2.716 1.899 3.43 3.863 6.978 4.263 11.171a11.804 11.804 0 01-.492 4.842c-1.734 5.257-6.18 6.631-10.477 7.96l-.91.282c3.504 5.258 7.485 12.246 8.041 20.242.368 5.291-1.362 9.56-4.628 11.42a9.47 9.47 0 01-8.29.17l.639-1.513a7.83 7.83 0 006.838-.086c4.007-2.28 3.923-8.137 3.802-9.877-.542-7.797-4.567-14.683-8.014-19.811a19.012 19.012 0 01-.36-.563l-.546-.882.984-.33a85 85 0 011.959-.622c4.08-1.26 7.933-2.452 9.402-6.905a10.17 10.17 0 00.417-4.171c-.368-3.852-2.164-7.097-4.066-10.531-.507-.916-1.014-1.831-1.492-2.759-5.08-9.843-6.974-21.172-8.646-31.167a5224.73 5224.73 0 01-5.184-31.603l-.03-.19c-1.079-6.698-2.193-13.623-4.414-20.096-.341-.992-.708-1.977-1.075-2.962-.693-1.859-1.41-3.781-1.939-5.747-1.764-6.55-1.433-13.41-1.112-20.045a91.195 91.195 0 00-.05-14.185c-1.458-13.324-4.23-26.62-6.751-37.87a190.742 190.742 0 01-3.881-27.719l-.03-.387.282-.269c3.779-3.602 6.143-8.56 8.229-12.934l4.703-9.862c1.699-3.56 3.448-7.23 4.996-10.905a8.42 8.42 0 00.667-2.134l.423-3.297 1.364 3.65c.102.27.203.537.302.805.3.824.81 1.623 1.245 1.53a1.372 1.372 0 00.502-.31c1.486-1.267 2.464-3.36 2.906-6.225.15-.968.241-1.975.33-2.95a32.517 32.517 0 01.653-4.652c.226-.945.569-1.936.9-2.895.932-2.697 1.812-5.246.512-7.107l-.663-.95 1.115-.312a10.65 10.65 0 004.143-1.823c.926-.805 1.597-2.276 1.015-3.415a5.98 5.98 0 00-1.038-1.283c-.82-.854-1.75-1.822-1.513-3.228a3.957 3.957 0 01.723-1.548l.109-.163a9.69 9.69 0 00-.164-10.525c-.265-.377-.556-.734-.846-1.09a11.864 11.864 0 01-2.702-5.3l-.108-.351a69.61 69.61 0 00-8.968-18.586l-.163-.238a9.426 9.426 0 01-2.177-7.46c.013-.299.027-.597.035-.894.126-5.059-1.609-10.554-5.017-15.89a26.91 26.91 0 00-.49-.73l-.336-.496-.004-.244a13.613 13.613 0 00-.34-2.872 43.821 43.821 0 00-3.353-10.277c-1.258-2.447-3.525-5.714-7.182-7.38-3.133-1.429-6.857-1.44-10.142-1.449l-13.089-.036.925-1.295a3.448 3.448 0 00.64-2.392 96.714 96.714 0 01.208-12.865c.634-11.097 1.422-24.907-5.102-35.932-9.427-15.929-28.26-16.882-28.45-16.89-.253-.028-18.498-1.998-30.17 22.288-1.477 3.076-3.04 6.16-4.552 9.143-6.863 13.542-13.345 26.334-9.696 34.087 1.587 3.373 5.011 5.677 10.454 7.03l5.158-16.053 3.198 17.272c2.907.2 6.164.244 9.689.13l1.821-.071 3.258-.41-3.227 2.283a19.387 19.387 0 01-2.427 1.573 19.828 19.828 0 01-2.181.869 13.576 13.576 0 00-2.573 1.105c-1.66 1.01-2.846 2.795-3.892 4.37l-6.233 9.373a28.455 28.455 0 00-3.478 6.333c-.905 2.645-.993 5.576-1.079 8.411l-.007.255a396.178 396.178 0 01-1.56 25.076 90.45 90.45 0 01-1.75 12.053c-.753 3.24-1.825 6.416-2.862 9.489l-11.546 34.228a12.4 12.4 0 00-.956 5.042c.146 1.4 1.046 2.976 2.483 3.277l1.275.268-.79 1.035a37.644 37.644 0 00-7.266 16.918 76.756 76.756 0 00-.682 7.744 55.044 55.044 0 01-1.366 11.105c-1.173 4.442-.476 8.965.26 13.753a58.064 58.064 0 01.916 9.138c-.075 11.634-1.69 23.323-3.252 34.627l-.023.167c-4.509 32.611-9.17 66.334-14.15 99.444-3.737 24.85-8.388 55.776 4.575 80.497 3.613 6.89 7.772 11.481 12.714 14.037a39.09 39.09 0 009.983 3.126l2.79.567-1.195 1.088c-5.35 4.872-10.089 12.036-11.791 17.826-1.024 3.484-.891 6.153.395 7.933a7.85 7.85 0 003.358 2.434c3.048 1.33 14.787 2.558 13.969 2.876a7.878 7.878 0 01-2.517.422q-1.01.047-1.968.046zm100.648-322.843l-.084-1.75c-.02-.396-.038-.792-.062-1.187l-.04-.652.756-.224c.134-.04.269-.078.4-.127a14.461 14.461 0 002.886-1.64l.49-.328a44.677 44.677 0 013.115-1.867l2.866-1.582-1.78 2.748a12.42 12.42 0 01-5.173 4.72c-.683.327-1.382.705-2.2 1.191l-1.174.698zm15.352-39.279l-1.332-2.874c-2.554-5.515-4.612-10.19-6.355-15.079-1.173-3.29-2.246-6.842-2.164-10.519.002-.09.007-.182.013-.273l.097-2.063 1.327 1.396a26.822 26.822 0 013.264 4.266 36.665 36.665 0 015.383 21.987l-.233 3.16zm-8.147-26.579a32.728 32.728 0 002.008 8.074c1.372 3.85 2.948 7.577 4.815 11.703a34.928 34.928 0 00-5.22-17.473 27.591 27.591 0 00-2.776-1.607l1.173-.697z"/><path stroke="null" fill="#3f3d56" d="M178.808 760.176l-177.457.822v-1.643l177.457-.822v1.643zM222.332 271.42l-1.78-11.753-2.788 10.803-7.737.298v-5.565l-2.424 5.657-13.29.544-.066-1.642 12.253-.501 5.17-12.064v11.864l4.808-.185 4.493-17.41 2.77 18.281 20.73-.423-.281-5.457 1.641-.084.367 7.149-23.866.487zM209.943 652.13a161.138 161.138 0 00-1.788-9.034c-.605-2.65-1.282-5.335-1.936-7.931-1.072-4.251-2.18-8.648-3.013-13.04a113.304 113.304 0 01-1.98-20.451 64.719 64.719 0 011.36-14.732c1.348-5.996 3.908-11.805 6.384-17.421 4.055-9.2 7.886-17.89 6.88-27.36l-.345-3.25 1.84 2.7c10.304 15.112 13.9 31.82 17.53 52.093 2.438 13.616 5.004 26.906 9.565 39.787 1.08 3.05 2.298 6.156 3.475 9.16.601 1.531 1.201 3.063 1.79 4.598l-1.536.588c-.585-1.531-1.185-3.06-1.783-4.586-1.183-3.016-2.405-6.136-3.495-9.21-4.602-13-7.183-26.361-9.634-40.048-3.39-18.935-6.745-34.722-15.606-48.908.027 8.755-3.63 17.049-7.177 25.098-2.445 5.546-4.973 11.28-6.285 17.119a63.152 63.152 0 00-1.32 14.362 111.658 111.658 0 001.95 20.155c.825 4.344 1.927 8.716 2.993 12.944.657 2.605 1.336 5.3 1.945 7.967a162.74 162.74 0 011.806 9.127l-1.62.273zM1406.752 414.3c-25.468-20.538-50.936 21.361-50.936 21.361v20.54l-2.465-17.254-10.68 21.36-.822-4.107c-7.394 7.394-.821 42.721-.821 42.721s-3.286-14.788-4.93-18.896-4.107-9.858-4.107-9.858c-.822 4.929-9.037 11.501-13.967 17.252s-5.75 16.431-5.75 16.431l-1.644-2.464c-16.431 16.431-3.286 65.724-3.286 65.724-23.004-25.468-4.108-58.33-4.108-58.33-4.108.821-10.68 12.323-10.68 12.323s-19.718 27.933-18.074 37.792-2.465 14.788-2.465 14.788a23.314 23.314 0 00-5.751 18.074l-1.643-3.286c-7.126 6.334-5.096 28.686-4.94 30.297l14.061 33.564-9.851-12.103h-.913v7.394c-5.751 1.643 2.464 8.216 2.464 8.216-3.286 4.93-1.643 6.572-1.643 6.572v1.643s0-.821 2.465 0 0 5.751 0 5.751c0 4.93 8.216.822 8.216.822l6.254 2.324s4.426 1.784 7.712 1.784 2.465-1.644 2.465-2.465 5.75-.822 5.75-2.465 1.644-.821 2.465-1.643-1.643-3.286-1.643-3.286 6.573.821 5.751 0a3.07 3.07 0 01-.503-.781l-16.665-1.082 20.172-6.527c-1.26-.949-.54-3.112-.54-3.112 13.146-1.643 23.826-12.323 23.826-14.788s15.61-40.256 15.61-40.256l-2.465-1.644 3.286-2.464c9.859-5.751 13.145-24.647 13.145-24.647-2.465 4.108-9.037 5.751-9.037 5.751s-35.327 14.788-32.862 9.859 30.397-14.788 30.397-14.788c23.825-6.573 31.22-46.008 31.22-46.008l-38.614 20.54 30.398-18.075c13.966-12.323 19.717-32.862 19.717-32.862l-32.04 13.966 32.04-16.43 20.54-27.934s21.36-28.754-4.109-49.293zM1271.196 710.883l-974.44.821v-1.643l974.44-.821v1.643z"/><path stroke="null" fill="#38d39f" d="M1409.053 417.768c-4.445 4.92-98.776 110.918-135.007 283.946q-.616 2.921-1.208 5.883s-4.107 5.75-4.929 0c0 0 .485-2.457 1.52-6.975 7.747-33.947 46.204-184.235 139.624-282.854z"/><path stroke="null" fill="#3f3d56" d="M1274.046 701.714q-.616 2.921-1.208 5.883s-4.107 5.75-4.929 0c0 0 .485-2.457 1.52-6.975a11.316 11.316 0 014.617 1.092z"/><circle stroke="null" opacity=".4" fill="#38d39f" r="15.991" cy="467.969" cx="1253.173"/><circle stroke="null" opacity=".4" fill="#38d39f" r="11.218" cy="494.272" cx="1268.742"/><circle stroke="null" opacity=".4" fill="#38d39f" r="11.218" cy="685.949" cx="1311.258"/></g></svg>